<?xml version="1.0" encoding="UTF-8" standalone="no"?>
<!DOCTYPE svg PUBLIC "-//W3C//DTD SVG 1.1//EN"
 "http://www.w3.org/Graphics/SVG/1.1/DTD/svg11.dtd">
<!-- Generated by graphviz version 2.42.3 (20191010.1750)
 -->
<!-- Title: snakemake_dag Pages: 1 -->
<svg width="306pt" height="404pt"
 viewBox="0.00 0.00 306.00 404.00" xmlns="http://www.w3.org/2000/svg" xmlns:xlink="http://www.w3.org/1999/xlink">
<g id="graph0" class="graph" transform="scale(1 1) rotate(0) translate(4 400)">
<title>snakemake_dag</title>
<polygon fill="white" stroke="transparent" points="-4,4 -4,-400 302,-400 302,4 -4,4"/>
<!-- 0 -->
<g id="node1" class="node">
<title>0</title>
<path fill="none" stroke="#569ad8" stroke-width="2" d="M174,-36C174,-36 144,-36 144,-36 138,-36 132,-30 132,-24 132,-24 132,-12 132,-12 132,-6 138,0 144,0 144,0 174,0 174,0 180,0 186,-6 186,-12 186,-12 186,-24 186,-24 186,-30 180,-36 174,-36"/>
<text text-anchor="middle" x="159" y="-15.5" font-family="sans" font-size="10.00">all</text>
</g>
<!-- 1 -->
<g id="node2" class="node">
<title>1</title>
<path fill="none" stroke="#d89556" stroke-width="2" d="M210.5,-108C210.5,-108 107.5,-108 107.5,-108 101.5,-108 95.5,-102 95.5,-96 95.5,-96 95.5,-84 95.5,-84 95.5,-78 101.5,-72 107.5,-72 107.5,-72 210.5,-72 210.5,-72 216.5,-72 222.5,-78 222.5,-84 222.5,-84 222.5,-96 222.5,-96 222.5,-102 216.5,-108 210.5,-108"/>
<text text-anchor="middle" x="159" y="-87.5" font-family="sans" font-size="10.00">Evaluate_Performance</text>
</g>
<!-- 1&#45;&gt;0 -->
<g id="edge1" class="edge">
<title>1&#45;&gt;0</title>
<path fill="none" stroke="grey" stroke-width="2" d="M159,-71.7C159,-63.98 159,-54.71 159,-46.11"/>
<polygon fill="grey" stroke="grey" stroke-width="2" points="162.5,-46.1 159,-36.1 155.5,-46.1 162.5,-46.1"/>
</g>
<!-- 2 -->
<g id="node3" class="node">
<title>2</title>
<path fill="none" stroke="#59d856" stroke-width="2" d="M286,-180C286,-180 172,-180 172,-180 166,-180 160,-174 160,-168 160,-168 160,-156 160,-156 160,-150 166,-144 172,-144 172,-144 286,-144 286,-144 292,-144 298,-150 298,-156 298,-156 298,-168 298,-168 298,-174 292,-180 286,-180"/>
<text text-anchor="middle" x="229" y="-159.5" font-family="sans" font-size="10.00">Call_Clonality_TwoMetric</text>
</g>
<!-- 2&#45;&gt;1 -->
<g id="edge3" class="edge">
<title>2&#45;&gt;1</title>
<path fill="none" stroke="grey" stroke-width="2" d="M211.7,-143.7C203.14,-135.14 192.66,-124.66 183.3,-115.3"/>
<polygon fill="grey" stroke="grey" stroke-width="2" points="185.65,-112.7 176.1,-108.1 180.7,-117.65 185.65,-112.7"/>
</g>
<!-- 3 -->
<g id="node4" class="node">
<title>3</title>
<path fill="none" stroke="#d6d856" stroke-width="2" d="M179.5,-324C179.5,-324 108.5,-324 108.5,-324 102.5,-324 96.5,-318 96.5,-312 96.5,-312 96.5,-300 96.5,-300 96.5,-294 102.5,-288 108.5,-288 108.5,-288 179.5,-288 179.5,-288 185.5,-288 191.5,-294 191.5,-300 191.5,-300 191.5,-312 191.5,-312 191.5,-318 185.5,-324 179.5,-324"/>
<text text-anchor="middle" x="144" y="-303.5" font-family="sans" font-size="10.00">Filter_mutations</text>
</g>
<!-- 3&#45;&gt;2 -->
<g id="edge4" class="edge">
<title>3&#45;&gt;2</title>
<path fill="none" stroke="grey" stroke-width="2" d="M144.31,-287.67C145.38,-268.75 149.32,-238.19 163,-216 170.06,-204.55 180.5,-194.51 191.02,-186.34"/>
<polygon fill="grey" stroke="grey" stroke-width="2" points="193.4,-188.93 199.4,-180.19 189.26,-183.29 193.4,-188.93"/>
</g>
<!-- 5 -->
<g id="node6" class="node">
<title>5</title>
<path fill="none" stroke="#56d89a" stroke-width="2" d="M273.5,-252C273.5,-252 184.5,-252 184.5,-252 178.5,-252 172.5,-246 172.5,-240 172.5,-240 172.5,-228 172.5,-228 172.5,-222 178.5,-216 184.5,-216 184.5,-216 273.5,-216 273.5,-216 279.5,-216 285.5,-222 285.5,-228 285.5,-228 285.5,-240 285.5,-240 285.5,-246 279.5,-252 273.5,-252"/>
<text text-anchor="middle" x="229" y="-231.5" font-family="sans" font-size="10.00">Create_Tumor_Pairs</text>
</g>
<!-- 3&#45;&gt;5 -->
<g id="edge7" class="edge">
<title>3&#45;&gt;5</title>
<path fill="none" stroke="grey" stroke-width="2" d="M165.01,-287.7C175.72,-278.88 188.89,-268.03 200.5,-258.47"/>
<polygon fill="grey" stroke="grey" stroke-width="2" points="202.74,-261.16 208.23,-252.1 198.29,-255.76 202.74,-261.16"/>
</g>
<!-- 6 -->
<g id="node7" class="node">
<title>6</title>
<path fill="none" stroke="#d85656" stroke-width="2" d="M130,-180C130,-180 50,-180 50,-180 44,-180 38,-174 38,-168 38,-168 38,-156 38,-156 38,-150 44,-144 50,-144 50,-144 130,-144 130,-144 136,-144 142,-150 142,-156 142,-156 142,-168 142,-168 142,-174 136,-180 130,-180"/>
<text text-anchor="middle" x="90" y="-159.5" font-family="sans" font-size="10.00">Call_Clonality_MC</text>
</g>
<!-- 3&#45;&gt;6 -->
<g id="edge9" class="edge">
<title>3&#45;&gt;6</title>
<path fill="none" stroke="grey" stroke-width="2" d="M137.49,-287.87C128.2,-263.46 111.08,-218.43 100.13,-189.64"/>
<polygon fill="grey" stroke="grey" stroke-width="2" points="103.36,-188.29 96.54,-180.19 96.82,-190.78 103.36,-188.29"/>
</g>
<!-- 7 -->
<g id="node8" class="node">
<title>7</title>
<path fill="none" stroke="#56d8d8" stroke-width="2" d="M66,-252C66,-252 12,-252 12,-252 6,-252 0,-246 0,-240 0,-240 0,-228 0,-228 0,-222 6,-216 12,-216 12,-216 66,-216 66,-216 72,-216 78,-222 78,-228 78,-228 78,-240 78,-240 78,-246 72,-252 66,-252"/>
<text text-anchor="middle" x="39" y="-231.5" font-family="sans" font-size="10.00">Run_OncoKB</text>
</g>
<!-- 3&#45;&gt;7 -->
<g id="edge12" class="edge">
<title>3&#45;&gt;7</title>
<path fill="none" stroke="grey" stroke-width="2" d="M118.31,-287.88C104.71,-278.81 87.83,-267.55 73.14,-257.76"/>
<polygon fill="grey" stroke="grey" stroke-width="2" points="75.05,-254.82 64.78,-252.19 71.16,-260.65 75.05,-254.82"/>
</g>
<!-- 4 -->
<g id="node5" class="node">
<title>4</title>
<path fill="none" stroke="#97d856" stroke-width="2" d="M216,-396C216,-396 148,-396 148,-396 142,-396 136,-390 136,-384 136,-384 136,-372 136,-372 136,-366 142,-360 148,-360 148,-360 216,-360 216,-360 222,-360 228,-366 228,-372 228,-372 228,-384 228,-384 228,-390 222,-396 216,-396"/>
<text text-anchor="middle" x="182" y="-375.5" font-family="sans" font-size="10.00">Download_data</text>
</g>
<!-- 4&#45;&gt;3 -->
<g id="edge6" class="edge">
<title>4&#45;&gt;3</title>
<path fill="none" stroke="grey" stroke-width="2" d="M172.61,-359.7C168.24,-351.64 162.94,-341.89 158.1,-332.98"/>
<polygon fill="grey" stroke="grey" stroke-width="2" points="161.13,-331.22 153.29,-324.1 154.98,-334.56 161.13,-331.22"/>
</g>
<!-- 4&#45;&gt;5 -->
<g id="edge8" class="edge">
<title>4&#45;&gt;5</title>
<path fill="none" stroke="grey" stroke-width="2" d="M187.89,-359.83C191.43,-349.47 196.01,-335.99 200,-324 206.95,-303.12 214.66,-279.42 220.38,-261.74"/>
<polygon fill="grey" stroke="grey" stroke-width="2" points="223.76,-262.67 223.5,-252.08 217.1,-260.52 223.76,-262.67"/>
</g>
<!-- 5&#45;&gt;2 -->
<g id="edge5" class="edge">
<title>5&#45;&gt;2</title>
<path fill="none" stroke="grey" stroke-width="2" d="M229,-215.7C229,-207.98 229,-198.71 229,-190.11"/>
<polygon fill="grey" stroke="grey" stroke-width="2" points="232.5,-190.1 229,-180.1 225.5,-190.1 232.5,-190.1"/>
</g>
<!-- 5&#45;&gt;6 -->
<g id="edge10" class="edge">
<title>5&#45;&gt;6</title>
<path fill="none" stroke="grey" stroke-width="2" d="M195,-215.88C176.4,-206.51 153.17,-194.81 133.29,-184.8"/>
<polygon fill="grey" stroke="grey" stroke-width="2" points="134.64,-181.56 124.13,-180.19 131.49,-187.81 134.64,-181.56"/>
</g>
<!-- 6&#45;&gt;1 -->
<g id="edge2" class="edge">
<title>6&#45;&gt;1</title>
<path fill="none" stroke="grey" stroke-width="2" d="M107.06,-143.7C115.5,-135.14 125.82,-124.66 135.04,-115.3"/>
<polygon fill="grey" stroke="grey" stroke-width="2" points="137.61,-117.68 142.14,-108.1 132.63,-112.77 137.61,-117.68"/>
</g>
<!-- 7&#45;&gt;6 -->
<g id="edge11" class="edge">
<title>7&#45;&gt;6</title>
<path fill="none" stroke="grey" stroke-width="2" d="M51.61,-215.7C57.6,-207.47 64.88,-197.48 71.48,-188.42"/>
<polygon fill="grey" stroke="grey" stroke-width="2" points="74.48,-190.25 77.54,-180.1 68.82,-186.13 74.48,-190.25"/>
</g>
</g>
</svg>
